<?xml version="1.0" encoding="UTF-8"?>
<svg id="Layer_2" data-name="Layer 2" xmlns="http://www.w3.org/2000/svg" viewBox="0 0 663.6 632.73">
  <defs>
    <style>
      .cls-1 {
        fill: #f80;
      }

      .cls-1, .cls-2 {
        stroke-width: 0px;
      }

      .cls-2 {
        fill: #312c31;
      }
    </style>
  </defs>
  <g id="Layer_1-2" data-name="Layer 1">
    <path class="cls-2" d="M384.46,0H52.67v138.86h331.8v75.98l-132.98,13.1C60.57,246.28,0,292.13,0,432.3v36.68c0,107.42,77.68,163.75,173.8,163.75,43.45,0,90.85-10.48,138.25-35.37l72.42-36.68v64.19h139.57V138.86L384.46,0ZM384.46,424.44l-89.53,45.85c-34.23,19.65-69.78,30.13-97.43,30.13-34.23,0-57.93-11.79-57.93-55.02v-28.82c2.63-45.85,32.92-57.64,135.62-68.12l109.28-11.79v87.77h-.01Z"/>
    <g>
      <path class="cls-1" d="M524.03,0h-139.57v138.86h139.57V0Z"/>
      <path class="cls-1" d="M663.6,138.85h-139.57v486.02h139.57V138.85Z"/>
    </g>
  </g>
</svg>