<?xml version="1.0" encoding="UTF-8"?>
<svg id="Layer_2" data-name="Layer 2" xmlns="http://www.w3.org/2000/svg" viewBox="0 0 131.2 151.92">
  <defs>
    <style>
      .cls-1 {
        fill: #f8ab00;
      }

      .cls-1, .cls-2 {
        stroke-width: 0px;
      }

      .cls-2 {
        fill: #e37300;
      }
    </style>
  </defs>
  <g id="svg4243">
    <g id="g6628">
      <path id="path3806" class="cls-1" d="M94.95,18.13v113.94c0,12.76,8.79,19.85,18.13,19.85,8.63,0,18.13-6.04,18.13-19.85V18.99c0-11.68-8.63-18.99-18.13-18.99s-18.13,8.07-18.13,18.13Z"/>
      <path id="path3808" class="cls-2" d="M47.47,75.96v56.1c0,12.76,8.79,19.85,18.13,19.85,8.63,0,18.13-6.04,18.13-19.85v-55.24c0-11.68-8.63-18.99-18.13-18.99s-18.13,8.07-18.13,18.13h0Z"/>
      <path id="path3810" class="cls-2" d="M36.25,133.79c0,10.01-8.12,18.13-18.13,18.13S0,143.8,0,133.79s8.12-18.13,18.13-18.13,18.13,8.12,18.13,18.13"/>
    </g>
  </g>
</svg>