<?xml version="1.0" encoding="UTF-8"?>
<svg id="Layer_2" data-name="Layer 2" xmlns="http://www.w3.org/2000/svg" viewBox="0 0 13.18 14.95">
  <defs>
    <style>
      .cls-1 {
        fill: #2e2e2e;
        stroke-width: 0px;
      }
    </style>
  </defs>
  <g id="Layer_1-2" data-name="Layer 1">
    <g>
      <path class="cls-1" d="M0,7.46c0-1.08,0-2.15,0-3.23,0-.38.15-.65.48-.84C2.37,2.32,4.24,1.23,6.12.14c.33-.19.63-.19.96,0,1.88,1.09,3.76,2.18,5.65,3.26.32.18.46.44.46.8,0,2.18,0,4.35,0,6.53,0,.37-.15.63-.47.81-1.89,1.08-3.78,2.17-5.66,3.27-.31.18-.6.19-.91,0-.44-.26-.89-.52-1.33-.77-.41-.24-.54-.67-.32-1.05.21-.37.66-.48,1.07-.25.31.17.61.35.91.53.09.05.16.06.25,0,1.61-.93,3.23-1.87,4.84-2.8.09-.05.13-.11.13-.22,0-1.86,0-3.72,0-5.58,0-.11-.03-.17-.12-.22-1.62-.93-3.24-1.87-4.86-2.8-.05-.03-.16-.03-.22,0-1.63.93-3.25,1.87-4.87,2.81-.05.03-.1.11-.1.17,0,1.89,0,3.78,0,5.67,0,.06.05.14.1.18.32.22.65.44.98.64.05.03.13.06.19.04.2-.04.4-.09.59-.15.16-.05.23-.16.23-.34,0-1.78,0-3.57,0-5.35,0-.13,0-.26.05-.38.11-.34.46-.53.82-.48.33.05.61.34.61.69.01.51,0,1.02,0,1.53,0,1.32,0,2.64,0,3.97,0,.89-.38,1.46-1.21,1.78-.45.17-.91.27-1.39.25-.17,0-.35-.07-.49-.15-.54-.33-1.06-.69-1.59-1.03C.13,11.34,0,11.08,0,10.74c0-1.09,0-2.19,0-3.28Z"/>
      <path class="cls-1" d="M8.51,11.22c-.67-.01-1.28-.1-1.81-.45-.51-.33-.83-.79-.85-1.41-.01-.4.29-.73.67-.76.4-.04.75.24.8.64.03.2.16.28.31.34.37.15.75.17,1.14.12.22-.03.43-.1.63-.18.2-.09.22-.21.09-.38-.09-.12-.22-.24-.36-.28-.43-.15-.88-.27-1.32-.4-.44-.13-.86-.3-1.24-.56-.96-.65-.99-2.12-.06-2.84.42-.32.89-.48,1.41-.54.64-.07,1.28-.05,1.88.19.67.27,1.14.72,1.27,1.46.07.43-.15.79-.54.9-.37.1-.81-.08-.88-.46-.1-.51-.46-.59-.85-.61-.35-.02-.7.03-1.04.07-.1.01-.21.08-.3.14-.18.13-.19.36,0,.46.29.15.61.27.92.38.5.17,1.03.29,1.51.5.69.31,1.08.88,1.17,1.63.07.62-.21,1.1-.68,1.48-.42.34-.92.48-1.44.53-.16.02-.33.02-.44.03Z"/>
    </g>
  </g>
</svg>