<?xml version="1.0" encoding="UTF-8"?>
<svg id="Layer_2" data-name="Layer 2" xmlns="http://www.w3.org/2000/svg" viewBox="0 0 436.41 452.5">
  <defs>
    <style>
      .cls-1 {
        fill: #2e2e2e;
        stroke-width: 0px;
      }
    </style>
  </defs>
  <g id="Layer_1-2" data-name="Layer 1">
    <g>
      <path class="cls-1" d="M436.26,249.65c0,49.99,0,99.97,0,149.96,0,1.67.02,3.33-.02,5-.47,18.03-9.27,27.99-27.23,29.49-20.74,1.73-41.54,2.78-62.32,4.05-41.89,2.56-83.79,5.08-125.69,7.58-37.08,2.21-74.17,4.17-111.23,6.63-16.42,1.09-29.3-4.08-38.39-18.15-2.79-4.32-6.28-8.19-9.44-12.27-15.19-19.62-30.26-39.33-45.6-58.83C5.47,349.3-.12,334.37,0,316.23.58,228.26.26,140.28.3,52.31c0-3.31.21-6.67.8-9.92,2.36-12.94,10.38-20.97,23.43-22.2,21.55-2.02,43.16-3.44,64.75-5.05,34.38-2.56,68.76-5.07,103.14-7.6,33.05-2.43,66.12-4.71,99.16-7.32,17.27-1.37,32.17,3.51,46.2,13.7,29.09,21.13,58.69,41.55,88.18,62.12,7.32,5.11,10.51,11.52,10.45,20.65-.3,50.98-.14,101.97-.14,152.95ZM249.8,111.49c-33.93,1.93-67.86,3.85-101.79,5.81-14.8.86-29.6,1.74-44.39,2.79-7.68.55-11.47,4.14-12.7,11.64-.4,2.45-.47,4.97-.47,7.46-.02,85.99-.02,171.98-.02,257.97,0,1.5-.05,3,.05,4.5.68,10.09,5.45,15.12,15.5,16.22,2.31.25,4.67.28,6.99.15,19.13-1.06,38.26-2.18,57.38-3.29,43.57-2.53,87.15-5.07,130.72-7.58,29.44-1.7,58.88-3.31,88.32-5.09,10.47-.63,15.27-5.35,16.57-15.78.23-1.81.22-3.66.22-5.49,0-86.82.01-173.65,0-260.47,0-11.35-3.15-18.11-17.69-17.15-46.21,3.06-92.46,5.57-138.69,8.3ZM373.95,72.82c.24-.44.48-.88.72-1.31-1.72-1.78-3.22-3.86-5.19-5.3-14.11-10.31-28.36-20.43-42.48-30.73-9.65-7.04-20.42-10.64-32.28-9.92-23.11,1.4-46.2,3.22-69.29,4.89-49.51,3.59-99.02,7.17-148.53,10.8-10.62.78-21.26,1.59-31.83,2.84-2.04.24-4.72,2.31-5.4,4.16-.47,1.26,1.65,4.09,3.27,5.4,11.65,9.42,23.47,18.62,35.23,27.91,6.65,5.25,14.11,8.03,22.66,7.67,3.99-.17,8-.13,11.99-.37,35.92-2.18,71.83-4.46,107.75-6.61,47.73-2.86,95.46-5.61,143.19-8.44,3.4-.2,6.79-.65,10.19-.99Z"/>
      <path class="cls-1" d="M361.67,152.07c2.46,10.22-.28,14.7-10.27,16.76q-10.64,2.2-10.64,12.88c0,58.99-.07,117.99.14,176.98.02,4.72-1.54,7.12-5.64,8.44-6.79,2.18-13.46,4.93-20.41,6.34-11.15,2.27-21.06-.74-27.77-10.37-9.61-13.78-18.93-27.76-28.05-41.88-20.59-31.89-40.98-63.9-61.45-95.86-.51-.8-1.11-1.55-2.31-3.22-.23,2.31-.49,3.67-.49,5.03-.02,40,.05,79.99-.11,119.99-.02,4.1,1.5,5.39,5.2,6.09,7.48,1.41,14.87,3.28,22.26,4.95-1.36,8.44-5.71,13.43-13.83,14.8-6.37,1.08-12.91,1.22-19.38,1.61-15.3.92-30.61,1.62-45.9,2.69-4.64.33-5.09-1.88-4.36-5.36.96-4.59,3.38-7.78,8.26-8.93,4.69-1.1,9.28-2.6,14.11-3.98v-173.08c-7.16-.65-14.36-1.31-21.51-1.97-2.28-10.21,3.57-19.07,13.62-19.87,21.25-1.71,42.53-3.1,63.82-4.31,1.66-.09,4,1.93,5.1,3.58,23.07,34.85,46.01,69.78,68.97,104.7,5.82,8.84,11.65,17.68,18.3,27.78v-120.56c-6.15-.73-12.36-1.71-18.61-2.11-4.04-.26-4.7-2.14-4.06-5.54,1.24-6.6,6.39-11.92,13.26-12.39,20.27-1.38,40.57-2.41,60.86-3.56.29-.02.59.23.89.36Z"/>
    </g>
  </g>
</svg>