<?xml version="1.0" encoding="UTF-8"?>
<svg id="Layer_2" data-name="Layer 2" xmlns="http://www.w3.org/2000/svg" viewBox="0 0 43.3 26">
  <defs>
    <style>
      .cls-1 {
        fill: #ff642d;
        stroke-width: 0px;
      }
    </style>
  </defs>
  <g id="katman_1" data-name="katman 1">
    <path class="cls-1" d="M37.4,12.8c0,.8-.4.9-1.4.9-1.1,0-1.3-.2-1.4-1-.2-2.1-1.6-3.9-4-4-.7-.1-.9-.3-.9-1.3,0-.9.1-1.3.8-1.3,4,.1,6.9,3.4,6.9,6.7ZM43.3,12.8c0-6.2-4.2-12.8-14-12.8H10c-.4,0-.7.2-.7.6,0,.2.1.4.3.5.7.6,1.7,1.2,3.1,1.9,1.3.7,2.4,1.1,3.4,1.5.4.2.6.4.6.6,0,.3-.2.6-.7.6H.7c-.5-.1-.7.2-.7.5s.1.5.3.7c1.2,1.3,3.2,2.9,6.1,4.7,2.5,1.6,5.7,3.3,8.2,4.5.4.2.6.4.6.7s-.2.5-.7.5h-7.1c-.4,0-.6.2-.6.5,0,.2.1.4.3.6,1.6,1.5,4.2,3,7.6,4.5,4.6,1.9,9.2,3.1,14.4,3.1,9.9,0,14.2-7.4,14.2-13.2ZM30.4,21.7c-4.8,0-8.9-3.9-8.9-8.9s4-8.7,8.9-8.7,8.9,3.9,8.9,8.7-3.9,8.9-8.9,8.9Z"/>
  </g>
</svg>