<?xml version="1.0" encoding="UTF-8"?>
<svg id="Layer_2" data-name="Layer 2" xmlns="http://www.w3.org/2000/svg" viewBox="0 0 383.51 383.25">
  <defs>
    <style>
      .cls-1 {
        fill: #2e2e2e;
        stroke-width: 0px;
      }
    </style>
  </defs>
  <g id="Layer_1-2" data-name="Layer 1">
    <path class="cls-1" d="M0,203.59c0-7.99,0-15.97,0-23.96.57-4.68,1.06-9.38,1.74-14.05,6.03-41.8,23.58-78.04,53.28-108.06C91.5,20.66,135.92,1.42,187.78.07c36.12-.94,70.08,7.65,100.95,26.49,54.94,33.53,86.56,82.49,93.62,146.53,4.15,37.62-2.85,73.66-20.88,107.01-29.68,54.88-75.39,88.42-136.79,100.22-6.94,1.33-14.02,1.98-21.03,2.94h-23.96c-.83-.2-1.65-.53-2.5-.59-36.44-2.81-69.53-14.88-98.8-36.71C37.47,315.42,12.15,274.96,2.94,224.63c-1.27-6.96-1.97-14.02-2.94-21.04ZM148.65,296.92c.55-1.01.85-1.41,1-1.86,12.09-36.27,24.19-72.54,36.2-108.83.39-1.16.29-2.71-.13-3.89-8.28-22.96-16.68-45.88-24.95-68.85-.77-2.14-1.9-2.74-4.06-2.87-5.1-.29-10.19-.83-15.27-1.43-4.06-.48-6.23-3.13-6.13-7.12.11-4.07,2.73-6.87,6.74-7.01,1.86-.07,3.74.14,5.61.23,12.08.62,24.17,1.83,36.25,1.74,16.2-.13,32.4-1.27,48.6-1.95,5.63-.24,8.71,2.08,8.95,6.65.23,4.38-2.53,7.09-7.83,7.6-5.93.58-11.87,1.11-18.19,1.69,20.67,61.34,41.26,122.47,62.14,184.44.6-1.33.83-1.73.96-2.16,8.51-28.39,17.1-56.76,25.49-85.19,4.46-15.09,5.49-30.35,1.48-45.77-3.34-12.85-10.11-24.01-16.65-35.37-4.13-7.18-8.12-14.7-10.52-22.58-4.58-14.99,1.87-30.44,14.72-36.78,4.22-2.08,9.1-2.81,14.08-4.28-45.37-38.37-97.18-52.56-155.49-39.2-43.97,10.07-78.12,35.07-104.15,72.97,2.41,0,3.65.04,4.89,0,16.95-.66,33.9-1.34,50.85-2.01,5.59-.22,8.74,2.12,8.99,6.64.24,4.32-2.6,7.1-7.86,7.61-5.95.58-11.91,1.11-18.22,1.69,20.79,61.83,41.53,123.54,62.49,185.89ZM195.12,207.88c-.29.02-.58.04-.87.05-17.06,49.57-34.12,99.14-51.27,148.96,35.75,10.19,70.7,9.21,105.57-2.6-17.9-49.04-35.67-97.73-53.44-146.41ZM116.36,346.36c-27.46-75.18-54.64-149.63-82.06-224.68-37.67,84.58-1.3,184.35,82.06,224.68ZM278.69,339.49c41.82-24.87,69.15-60.57,80.51-107.68,10.16-42.18,4.66-82.67-15.59-121.05,1.69,23.55-.24,41.82-8.01,64.45-16.49,48.04-33.25,95.99-49.9,143.97-2.35,6.76-4.67,13.54-7.01,20.3Z"/>
  </g>
</svg>